<?xml version="1.0" encoding="utf-8" standalone="no"?>
<!DOCTYPE svg PUBLIC "-//W3C//DTD SVG 1.1//EN"
  "http://www.w3.org/Graphics/SVG/1.1/DTD/svg11.dtd">
<svg xmlns:xlink="http://www.w3.org/1999/xlink" width="612.165625pt" height="337.074375pt" viewBox="0 0 612.165625 337.074375" xmlns="http://www.w3.org/2000/svg" version="1.1">
 <metadata>
  <rdf:RDF xmlns:dc="http://purl.org/dc/elements/1.1/" xmlns:cc="http://creativecommons.org/ns#" xmlns:rdf="http://www.w3.org/1999/02/22-rdf-syntax-ns#">
   <cc:Work>
    <dc:type rdf:resource="http://purl.org/dc/dcmitype/StillImage"/>
    <dc:date>2025-08-26T16:11:51.298235</dc:date>
    <dc:format>image/svg+xml</dc:format>
    <dc:creator>
     <cc:Agent>
      <dc:title>Matplotlib v3.10.5, https://matplotlib.org/</dc:title>
     </cc:Agent>
    </dc:creator>
   </cc:Work>
  </rdf:RDF>
 </metadata>
 <defs>
  <style type="text/css">*{stroke-linejoin: round; stroke-linecap: butt}</style>
 </defs>
 <g id="figure_1">
  <g id="patch_1">
   <path d="M 0 337.074375 
L 612.165625 337.074375 
L 612.165625 0 
L 0 0 
z
" style="fill: #ffffff"/>
  </g>
  <g id="axes_1">
   <g id="patch_2">
    <path d="M 46.965625 299.518125 
L 604.965625 299.518125 
L 604.965625 22.318125 
L 46.965625 22.318125 
z
" style="fill: #ffffff"/>
   </g>
   <g id="FillBetweenPolyCollection_1">
    <path d="M 72.329261 241.499411 
L 72.329261 258.43621 
L 78.440981 121.361105 
L 84.552701 191.768521 
L 90.66442 241.194852 
L 96.77614 272.504381 
L 102.887859 282.437861 
L 108.999579 283.807054 
L 115.111299 284.457573 
L 121.223018 284.982481 
L 127.334738 285.887818 
L 133.446457 285.944447 
L 139.558177 285.161317 
L 145.669897 285.351358 
L 151.781616 285.975858 
L 157.893336 285.858563 
L 164.005055 285.999284 
L 170.116775 285.991454 
L 176.228495 286.064005 
L 182.340214 286.266236 
L 188.451934 286.269271 
L 194.563653 286.063531 
L 200.675373 286.020185 
L 206.787093 286.223868 
L 212.898812 286.159856 
L 219.010532 285.892699 
L 225.122252 285.945928 
L 231.233971 286.207419 
L 237.345691 286.40316 
L 243.45741 286.479651 
L 249.56913 286.517898 
L 255.68085 286.425401 
L 261.792569 286.484582 
L 267.904289 286.564825 
L 274.016008 286.556011 
L 280.127728 286.535132 
L 286.239448 286.604867 
L 292.351167 286.708495 
L 298.462887 286.709648 
L 304.574606 286.63837 
L 310.686326 286.710281 
L 316.798046 286.495173 
L 322.909765 286.718302 
L 329.021485 286.785011 
L 335.133204 286.767415 
L 341.244924 286.824258 
L 347.356644 286.736701 
L 353.468363 286.646625 
L 359.580083 286.647261 
L 365.691802 286.84314 
L 371.803522 286.794479 
L 377.915242 286.79269 
L 384.026961 286.86187 
L 390.138681 286.857683 
L 396.2504 286.797426 
L 402.36212 286.811144 
L 408.47384 286.798922 
L 414.585559 286.788831 
L 420.697279 286.844405 
L 426.808998 286.825917 
L 432.920718 286.849441 
L 439.032438 286.870592 
L 445.144157 286.829392 
L 451.255877 286.839707 
L 457.367597 286.862538 
L 463.479316 286.83322 
L 469.591036 286.821443 
L 475.702755 286.866365 
L 481.814475 286.880754 
L 487.926195 286.896864 
L 494.037914 286.815103 
L 500.149634 286.821589 
L 506.261353 286.843354 
L 512.373073 286.847279 
L 518.484793 286.857857 
L 524.596512 286.844123 
L 530.708232 286.853523 
L 536.819951 286.853094 
L 542.931671 286.876054 
L 549.043391 286.85629 
L 555.15511 286.841128 
L 561.26683 286.834618 
L 567.378549 286.837914 
L 573.490269 286.859916 
L 579.601989 286.855984 
L 579.601989 286.789556 
L 579.601989 286.789556 
L 573.490269 286.784866 
L 567.378549 286.772615 
L 561.26683 286.795861 
L 555.15511 286.792662 
L 549.043391 286.806853 
L 542.931671 286.810297 
L 536.819951 286.763343 
L 530.708232 286.784311 
L 524.596512 286.779165 
L 518.484793 286.811556 
L 512.373073 286.783995 
L 506.261353 286.767053 
L 500.149634 286.759094 
L 494.037914 286.753695 
L 487.926195 286.860819 
L 481.814475 286.818989 
L 475.702755 286.806766 
L 469.591036 286.761616 
L 463.479316 286.772352 
L 457.367597 286.818272 
L 451.255877 286.77876 
L 445.144157 286.733616 
L 439.032438 286.825864 
L 432.920718 286.797499 
L 426.808998 286.758572 
L 420.697279 286.788628 
L 414.585559 286.725686 
L 408.47384 286.735038 
L 402.36212 286.749472 
L 396.2504 286.707911 
L 390.138681 286.770093 
L 384.026961 286.815393 
L 377.915242 286.719659 
L 371.803522 286.681606 
L 365.691802 286.774403 
L 359.580083 286.536619 
L 353.468363 286.488473 
L 347.356644 286.612055 
L 341.244924 286.745284 
L 335.133204 286.646531 
L 329.021485 286.695035 
L 322.909765 286.621151 
L 316.798046 286.352836 
L 310.686326 286.595726 
L 304.574606 286.490301 
L 298.462887 286.598852 
L 292.351167 286.567084 
L 286.239448 286.401598 
L 280.127728 286.198367 
L 274.016008 286.141048 
L 267.904289 286.14225 
L 261.792569 286.072797 
L 255.68085 286.047728 
L 249.56913 286.211416 
L 243.45741 286.129106 
L 237.345691 286.0203 
L 231.233971 285.835547 
L 225.122252 285.332369 
L 219.010532 285.146459 
L 212.898812 285.438688 
L 206.787093 285.479835 
L 200.675373 285.343519 
L 194.563653 285.453456 
L 188.451934 285.898074 
L 182.340214 285.927865 
L 176.228495 285.584503 
L 170.116775 285.334034 
L 164.005055 284.985255 
L 157.893336 284.671535 
L 151.781616 285.021813 
L 145.669897 284.407813 
L 139.558177 284.24858 
L 133.446457 285.421424 
L 127.334738 285.452438 
L 121.223018 284.267453 
L 115.111299 283.232934 
L 108.999579 282.510518 
L 102.887859 280.745784 
L 96.77614 268.331375 
L 90.66442 222.544652 
L 84.552701 156.334878 
L 78.440981 88.32146 
L 72.329261 241.499411 
z
" clip-path="url(#pc6c786b650)" style="fill: #1f77b4; fill-opacity: 0.3"/>
   </g>
   <g id="FillBetweenPolyCollection_2">
    <path d="M 72.329261 264.26832 
L 72.329261 274.432887 
L 78.440981 65.865877 
L 84.552701 160.876131 
L 90.66442 240.606092 
L 96.77614 284.471245 
L 102.887859 275.513698 
L 108.999579 273.292032 
L 115.111299 280.629845 
L 121.223018 282.008674 
L 127.334738 280.996 
L 133.446457 281.970727 
L 139.558177 284.637759 
L 145.669897 286.272289 
L 151.781616 286.016919 
L 157.893336 285.979539 
L 164.005055 285.809432 
L 170.116775 285.829283 
L 176.228495 285.657672 
L 182.340214 285.479173 
L 188.451934 285.826615 
L 194.563653 285.825459 
L 200.675373 285.36915 
L 206.787093 285.421611 
L 212.898812 285.675956 
L 219.010532 285.729236 
L 225.122252 286.003698 
L 231.233971 285.872015 
L 237.345691 286.029289 
L 243.45741 285.979839 
L 249.56913 286.341399 
L 255.68085 286.286204 
L 261.792569 286.491349 
L 267.904289 286.635339 
L 274.016008 286.623059 
L 280.127728 286.515414 
L 286.239448 286.582749 
L 292.351167 286.582304 
L 298.462887 286.564174 
L 304.574606 286.643022 
L 310.686326 286.638988 
L 316.798046 286.452417 
L 322.909765 286.694291 
L 329.021485 286.805618 
L 335.133204 286.765617 
L 341.244924 286.737537 
L 347.356644 286.664427 
L 353.468363 286.822231 
L 359.580083 286.73289 
L 365.691802 286.786696 
L 371.803522 286.743713 
L 377.915242 286.752297 
L 384.026961 286.705379 
L 390.138681 286.722851 
L 396.2504 286.842795 
L 402.36212 286.86972 
L 408.47384 286.880965 
L 414.585559 286.843803 
L 420.697279 286.840615 
L 426.808998 286.886316 
L 432.920718 286.792998 
L 439.032438 286.874192 
L 445.144157 286.849791 
L 451.255877 286.795513 
L 457.367597 286.808966 
L 463.479316 286.76825 
L 469.591036 286.840376 
L 475.702755 286.872775 
L 481.814475 286.862217 
L 487.926195 286.84925 
L 494.037914 286.770413 
L 500.149634 286.816037 
L 506.261353 286.85464 
L 512.373073 286.899866 
L 518.484793 286.859934 
L 524.596512 286.909563 
L 530.708232 286.883104 
L 536.819951 286.888545 
L 542.931671 286.918115 
L 549.043391 286.871331 
L 555.15511 286.877079 
L 561.26683 286.827541 
L 567.378549 286.818627 
L 573.490269 286.918125 
L 579.601989 286.832504 
L 579.601989 286.710325 
L 579.601989 286.710325 
L 573.490269 286.843214 
L 567.378549 286.718322 
L 561.26683 286.696501 
L 555.15511 286.787827 
L 549.043391 286.814148 
L 542.931671 286.846529 
L 536.819951 286.751869 
L 530.708232 286.755419 
L 524.596512 286.75721 
L 518.484793 286.802265 
L 512.373073 286.81792 
L 506.261353 286.66711 
L 500.149634 286.717227 
L 494.037914 286.552345 
L 487.926195 286.667581 
L 481.814475 286.777492 
L 475.702755 286.744022 
L 469.591036 286.658709 
L 463.479316 286.50206 
L 457.367597 286.657058 
L 451.255877 286.675317 
L 445.144157 286.73425 
L 439.032438 286.811824 
L 432.920718 286.675704 
L 426.808998 286.773827 
L 420.697279 286.734544 
L 414.585559 286.735086 
L 408.47384 286.778586 
L 402.36212 286.762873 
L 396.2504 286.749818 
L 390.138681 286.525281 
L 384.026961 286.481599 
L 377.915242 286.567869 
L 371.803522 286.625483 
L 365.691802 286.67604 
L 359.580083 286.54371 
L 353.468363 286.757047 
L 347.356644 286.485494 
L 341.244924 286.605415 
L 335.133204 286.550697 
L 329.021485 286.695704 
L 322.909765 286.554513 
L 316.798046 286.2413 
L 310.686326 286.363396 
L 304.574606 286.463163 
L 298.462887 286.365097 
L 292.351167 286.274312 
L 286.239448 286.306315 
L 280.127728 286.308832 
L 274.016008 286.382584 
L 267.904289 286.303818 
L 261.792569 286.120413 
L 255.68085 285.417151 
L 249.56913 285.83351 
L 243.45741 285.293909 
L 237.345691 285.532718 
L 231.233971 285.12757 
L 225.122252 285.578107 
L 219.010532 285.024964 
L 212.898812 284.796935 
L 206.787093 284.519833 
L 200.675373 284.329978 
L 194.563653 284.698216 
L 188.451934 284.840793 
L 182.340214 284.460279 
L 176.228495 284.611403 
L 170.116775 284.823105 
L 164.005055 285.100853 
L 157.893336 285.184985 
L 151.781616 285.548933 
L 145.669897 285.612612 
L 139.558177 282.974919 
L 133.446457 280.30206 
L 127.334738 278.511953 
L 121.223018 279.263595 
L 115.111299 278.276689 
L 108.999579 270.189975 
L 102.887859 273.593897 
L 96.77614 281.698313 
L 90.66442 231.089594 
L 84.552701 127.043083 
L 78.440981 34.918125 
L 72.329261 264.26832 
z
" clip-path="url(#pc6c786b650)" style="fill: #ff7f0e; fill-opacity: 0.3"/>
   </g>
   <g id="matplotlib.axis_1">
    <g id="xtick_1">
     <g id="line2d_1">
      <path d="M 72.329261 299.518125 
L 72.329261 22.318125 
" clip-path="url(#pc6c786b650)" style="fill: none; stroke: #b0b0b0; stroke-width: 0.8; stroke-linecap: square"/>
     </g>
     <g id="line2d_2">
      <defs>
       <path id="mf30b8521b2" d="M 0 0 
L 0 3.5 
" style="stroke: #000000; stroke-width: 0.8"/>
      </defs>
      <g>
       <use xlink:href="#mf30b8521b2" x="72.329261" y="299.518125" style="stroke: #000000; stroke-width: 0.8"/>
      </g>
     </g>
     <g id="text_1">
      <!-- 0 -->
      <g transform="translate(69.148011 314.116563) scale(0.1 -0.1)">
       <defs>
        <path id="DejaVuSans-30" d="M 2034 4250 
Q 1547 4250 1301 3770 
Q 1056 3291 1056 2328 
Q 1056 1369 1301 889 
Q 1547 409 2034 409 
Q 2525 409 2770 889 
Q 3016 1369 3016 2328 
Q 3016 3291 2770 3770 
Q 2525 4250 2034 4250 
z
M 2034 4750 
Q 2819 4750 3233 4129 
Q 3647 3509 3647 2328 
Q 3647 1150 3233 529 
Q 2819 -91 2034 -91 
Q 1250 -91 836 529 
Q 422 1150 422 2328 
Q 422 3509 836 4129 
Q 1250 4750 2034 4750 
z
" transform="scale(0.015625)"/>
       </defs>
       <use xlink:href="#DejaVuSans-30"/>
      </g>
     </g>
    </g>
    <g id="xtick_2">
     <g id="line2d_3">
      <path d="M 170.318621 299.518125 
L 170.318621 22.318125 
" clip-path="url(#pc6c786b650)" style="fill: none; stroke: #b0b0b0; stroke-width: 0.8; stroke-linecap: square"/>
     </g>
     <g id="line2d_4">
      <g>
       <use xlink:href="#mf30b8521b2" x="170.318621" y="299.518125" style="stroke: #000000; stroke-width: 0.8"/>
      </g>
     </g>
     <g id="text_2">
      <!-- 20 -->
      <g transform="translate(163.956121 314.116563) scale(0.1 -0.1)">
       <defs>
        <path id="DejaVuSans-32" d="M 1228 531 
L 3431 531 
L 3431 0 
L 469 0 
L 469 531 
Q 828 903 1448 1529 
Q 2069 2156 2228 2338 
Q 2531 2678 2651 2914 
Q 2772 3150 2772 3378 
Q 2772 3750 2511 3984 
Q 2250 4219 1831 4219 
Q 1534 4219 1204 4116 
Q 875 4013 500 3803 
L 500 4441 
Q 881 4594 1212 4672 
Q 1544 4750 1819 4750 
Q 2544 4750 2975 4387 
Q 3406 4025 3406 3419 
Q 3406 3131 3298 2873 
Q 3191 2616 2906 2266 
Q 2828 2175 2409 1742 
Q 1991 1309 1228 531 
z
" transform="scale(0.015625)"/>
       </defs>
       <use xlink:href="#DejaVuSans-32"/>
       <use xlink:href="#DejaVuSans-30" transform="translate(63.623047 0)"/>
      </g>
     </g>
    </g>
    <g id="xtick_3">
     <g id="line2d_5">
      <path d="M 268.307981 299.518125 
L 268.307981 22.318125 
" clip-path="url(#pc6c786b650)" style="fill: none; stroke: #b0b0b0; stroke-width: 0.8; stroke-linecap: square"/>
     </g>
     <g id="line2d_6">
      <g>
       <use xlink:href="#mf30b8521b2" x="268.307981" y="299.518125" style="stroke: #000000; stroke-width: 0.8"/>
      </g>
     </g>
     <g id="text_3">
      <!-- 40 -->
      <g transform="translate(261.945481 314.116563) scale(0.1 -0.1)">
       <defs>
        <path id="DejaVuSans-34" d="M 2419 4116 
L 825 1625 
L 2419 1625 
L 2419 4116 
z
M 2253 4666 
L 3047 4666 
L 3047 1625 
L 3713 1625 
L 3713 1100 
L 3047 1100 
L 3047 0 
L 2419 0 
L 2419 1100 
L 313 1100 
L 313 1709 
L 2253 4666 
z
" transform="scale(0.015625)"/>
       </defs>
       <use xlink:href="#DejaVuSans-34"/>
       <use xlink:href="#DejaVuSans-30" transform="translate(63.623047 0)"/>
      </g>
     </g>
    </g>
    <g id="xtick_4">
     <g id="line2d_7">
      <path d="M 366.297341 299.518125 
L 366.297341 22.318125 
" clip-path="url(#pc6c786b650)" style="fill: none; stroke: #b0b0b0; stroke-width: 0.8; stroke-linecap: square"/>
     </g>
     <g id="line2d_8">
      <g>
       <use xlink:href="#mf30b8521b2" x="366.297341" y="299.518125" style="stroke: #000000; stroke-width: 0.8"/>
      </g>
     </g>
     <g id="text_4">
      <!-- 60 -->
      <g transform="translate(359.934841 314.116563) scale(0.1 -0.1)">
       <defs>
        <path id="DejaVuSans-36" d="M 2113 2584 
Q 1688 2584 1439 2293 
Q 1191 2003 1191 1497 
Q 1191 994 1439 701 
Q 1688 409 2113 409 
Q 2538 409 2786 701 
Q 3034 994 3034 1497 
Q 3034 2003 2786 2293 
Q 2538 2584 2113 2584 
z
M 3366 4563 
L 3366 3988 
Q 3128 4100 2886 4159 
Q 2644 4219 2406 4219 
Q 1781 4219 1451 3797 
Q 1122 3375 1075 2522 
Q 1259 2794 1537 2939 
Q 1816 3084 2150 3084 
Q 2853 3084 3261 2657 
Q 3669 2231 3669 1497 
Q 3669 778 3244 343 
Q 2819 -91 2113 -91 
Q 1303 -91 875 529 
Q 447 1150 447 2328 
Q 447 3434 972 4092 
Q 1497 4750 2381 4750 
Q 2619 4750 2861 4703 
Q 3103 4656 3366 4563 
z
" transform="scale(0.015625)"/>
       </defs>
       <use xlink:href="#DejaVuSans-36"/>
       <use xlink:href="#DejaVuSans-30" transform="translate(63.623047 0)"/>
      </g>
     </g>
    </g>
    <g id="xtick_5">
     <g id="line2d_9">
      <path d="M 464.286702 299.518125 
L 464.286702 22.318125 
" clip-path="url(#pc6c786b650)" style="fill: none; stroke: #b0b0b0; stroke-width: 0.8; stroke-linecap: square"/>
     </g>
     <g id="line2d_10">
      <g>
       <use xlink:href="#mf30b8521b2" x="464.286702" y="299.518125" style="stroke: #000000; stroke-width: 0.8"/>
      </g>
     </g>
     <g id="text_5">
      <!-- 80 -->
      <g transform="translate(457.924202 314.116563) scale(0.1 -0.1)">
       <defs>
        <path id="DejaVuSans-38" d="M 2034 2216 
Q 1584 2216 1326 1975 
Q 1069 1734 1069 1313 
Q 1069 891 1326 650 
Q 1584 409 2034 409 
Q 2484 409 2743 651 
Q 3003 894 3003 1313 
Q 3003 1734 2745 1975 
Q 2488 2216 2034 2216 
z
M 1403 2484 
Q 997 2584 770 2862 
Q 544 3141 544 3541 
Q 544 4100 942 4425 
Q 1341 4750 2034 4750 
Q 2731 4750 3128 4425 
Q 3525 4100 3525 3541 
Q 3525 3141 3298 2862 
Q 3072 2584 2669 2484 
Q 3125 2378 3379 2068 
Q 3634 1759 3634 1313 
Q 3634 634 3220 271 
Q 2806 -91 2034 -91 
Q 1263 -91 848 271 
Q 434 634 434 1313 
Q 434 1759 690 2068 
Q 947 2378 1403 2484 
z
M 1172 3481 
Q 1172 3119 1398 2916 
Q 1625 2713 2034 2713 
Q 2441 2713 2670 2916 
Q 2900 3119 2900 3481 
Q 2900 3844 2670 4047 
Q 2441 4250 2034 4250 
Q 1625 4250 1398 4047 
Q 1172 3844 1172 3481 
z
" transform="scale(0.015625)"/>
       </defs>
       <use xlink:href="#DejaVuSans-38"/>
       <use xlink:href="#DejaVuSans-30" transform="translate(63.623047 0)"/>
      </g>
     </g>
    </g>
    <g id="xtick_6">
     <g id="line2d_11">
      <path d="M 562.276062 299.518125 
L 562.276062 22.318125 
" clip-path="url(#pc6c786b650)" style="fill: none; stroke: #b0b0b0; stroke-width: 0.8; stroke-linecap: square"/>
     </g>
     <g id="line2d_12">
      <g>
       <use xlink:href="#mf30b8521b2" x="562.276062" y="299.518125" style="stroke: #000000; stroke-width: 0.8"/>
      </g>
     </g>
     <g id="text_6">
      <!-- 100 -->
      <g transform="translate(552.732312 314.116563) scale(0.1 -0.1)">
       <defs>
        <path id="DejaVuSans-31" d="M 794 531 
L 1825 531 
L 1825 4091 
L 703 3866 
L 703 4441 
L 1819 4666 
L 2450 4666 
L 2450 531 
L 3481 531 
L 3481 0 
L 794 0 
L 794 531 
z
" transform="scale(0.015625)"/>
       </defs>
       <use xlink:href="#DejaVuSans-31"/>
       <use xlink:href="#DejaVuSans-30" transform="translate(63.623047 0)"/>
       <use xlink:href="#DejaVuSans-30" transform="translate(127.246094 0)"/>
      </g>
     </g>
    </g>
    <g id="text_7">
     <!-- Frequency (Hz) -->
     <g transform="translate(288.260938 327.794688) scale(0.1 -0.1)">
      <defs>
       <path id="DejaVuSans-46" d="M 628 4666 
L 3309 4666 
L 3309 4134 
L 1259 4134 
L 1259 2759 
L 3109 2759 
L 3109 2228 
L 1259 2228 
L 1259 0 
L 628 0 
L 628 4666 
z
" transform="scale(0.015625)"/>
       <path id="DejaVuSans-72" d="M 2631 2963 
Q 2534 3019 2420 3045 
Q 2306 3072 2169 3072 
Q 1681 3072 1420 2755 
Q 1159 2438 1159 1844 
L 1159 0 
L 581 0 
L 581 3500 
L 1159 3500 
L 1159 2956 
Q 1341 3275 1631 3429 
Q 1922 3584 2338 3584 
Q 2397 3584 2469 3576 
Q 2541 3569 2628 3553 
L 2631 2963 
z
" transform="scale(0.015625)"/>
       <path id="DejaVuSans-65" d="M 3597 1894 
L 3597 1613 
L 953 1613 
Q 991 1019 1311 708 
Q 1631 397 2203 397 
Q 2534 397 2845 478 
Q 3156 559 3463 722 
L 3463 178 
Q 3153 47 2828 -22 
Q 2503 -91 2169 -91 
Q 1331 -91 842 396 
Q 353 884 353 1716 
Q 353 2575 817 3079 
Q 1281 3584 2069 3584 
Q 2775 3584 3186 3129 
Q 3597 2675 3597 1894 
z
M 3022 2063 
Q 3016 2534 2758 2815 
Q 2500 3097 2075 3097 
Q 1594 3097 1305 2825 
Q 1016 2553 972 2059 
L 3022 2063 
z
" transform="scale(0.015625)"/>
       <path id="DejaVuSans-71" d="M 947 1747 
Q 947 1113 1208 752 
Q 1469 391 1925 391 
Q 2381 391 2643 752 
Q 2906 1113 2906 1747 
Q 2906 2381 2643 2742 
Q 2381 3103 1925 3103 
Q 1469 3103 1208 2742 
Q 947 2381 947 1747 
z
M 2906 525 
Q 2725 213 2448 61 
Q 2172 -91 1784 -91 
Q 1150 -91 751 415 
Q 353 922 353 1747 
Q 353 2572 751 3078 
Q 1150 3584 1784 3584 
Q 2172 3584 2448 3432 
Q 2725 3281 2906 2969 
L 2906 3500 
L 3481 3500 
L 3481 -1331 
L 2906 -1331 
L 2906 525 
z
" transform="scale(0.015625)"/>
       <path id="DejaVuSans-75" d="M 544 1381 
L 544 3500 
L 1119 3500 
L 1119 1403 
Q 1119 906 1312 657 
Q 1506 409 1894 409 
Q 2359 409 2629 706 
Q 2900 1003 2900 1516 
L 2900 3500 
L 3475 3500 
L 3475 0 
L 2900 0 
L 2900 538 
Q 2691 219 2414 64 
Q 2138 -91 1772 -91 
Q 1169 -91 856 284 
Q 544 659 544 1381 
z
M 1991 3584 
L 1991 3584 
z
" transform="scale(0.015625)"/>
       <path id="DejaVuSans-6e" d="M 3513 2113 
L 3513 0 
L 2938 0 
L 2938 2094 
Q 2938 2591 2744 2837 
Q 2550 3084 2163 3084 
Q 1697 3084 1428 2787 
Q 1159 2491 1159 1978 
L 1159 0 
L 581 0 
L 581 3500 
L 1159 3500 
L 1159 2956 
Q 1366 3272 1645 3428 
Q 1925 3584 2291 3584 
Q 2894 3584 3203 3211 
Q 3513 2838 3513 2113 
z
" transform="scale(0.015625)"/>
       <path id="DejaVuSans-63" d="M 3122 3366 
L 3122 2828 
Q 2878 2963 2633 3030 
Q 2388 3097 2138 3097 
Q 1578 3097 1268 2742 
Q 959 2388 959 1747 
Q 959 1106 1268 751 
Q 1578 397 2138 397 
Q 2388 397 2633 464 
Q 2878 531 3122 666 
L 3122 134 
Q 2881 22 2623 -34 
Q 2366 -91 2075 -91 
Q 1284 -91 818 406 
Q 353 903 353 1747 
Q 353 2603 823 3093 
Q 1294 3584 2113 3584 
Q 2378 3584 2631 3529 
Q 2884 3475 3122 3366 
z
" transform="scale(0.015625)"/>
       <path id="DejaVuSans-79" d="M 2059 -325 
Q 1816 -950 1584 -1140 
Q 1353 -1331 966 -1331 
L 506 -1331 
L 506 -850 
L 844 -850 
Q 1081 -850 1212 -737 
Q 1344 -625 1503 -206 
L 1606 56 
L 191 3500 
L 800 3500 
L 1894 763 
L 2988 3500 
L 3597 3500 
L 2059 -325 
z
" transform="scale(0.015625)"/>
       <path id="DejaVuSans-20" transform="scale(0.015625)"/>
       <path id="DejaVuSans-28" d="M 1984 4856 
Q 1566 4138 1362 3434 
Q 1159 2731 1159 2009 
Q 1159 1288 1364 580 
Q 1569 -128 1984 -844 
L 1484 -844 
Q 1016 -109 783 600 
Q 550 1309 550 2009 
Q 550 2706 781 3412 
Q 1013 4119 1484 4856 
L 1984 4856 
z
" transform="scale(0.015625)"/>
       <path id="DejaVuSans-48" d="M 628 4666 
L 1259 4666 
L 1259 2753 
L 3553 2753 
L 3553 4666 
L 4184 4666 
L 4184 0 
L 3553 0 
L 3553 2222 
L 1259 2222 
L 1259 0 
L 628 0 
L 628 4666 
z
" transform="scale(0.015625)"/>
       <path id="DejaVuSans-7a" d="M 353 3500 
L 3084 3500 
L 3084 2975 
L 922 459 
L 3084 459 
L 3084 0 
L 275 0 
L 275 525 
L 2438 3041 
L 353 3041 
L 353 3500 
z
" transform="scale(0.015625)"/>
       <path id="DejaVuSans-29" d="M 513 4856 
L 1013 4856 
Q 1481 4119 1714 3412 
Q 1947 2706 1947 2009 
Q 1947 1309 1714 600 
Q 1481 -109 1013 -844 
L 513 -844 
Q 928 -128 1133 580 
Q 1338 1288 1338 2009 
Q 1338 2731 1133 3434 
Q 928 4138 513 4856 
z
" transform="scale(0.015625)"/>
      </defs>
      <use xlink:href="#DejaVuSans-46"/>
      <use xlink:href="#DejaVuSans-72" transform="translate(50.269531 0)"/>
      <use xlink:href="#DejaVuSans-65" transform="translate(89.132812 0)"/>
      <use xlink:href="#DejaVuSans-71" transform="translate(150.65625 0)"/>
      <use xlink:href="#DejaVuSans-75" transform="translate(214.132812 0)"/>
      <use xlink:href="#DejaVuSans-65" transform="translate(277.511719 0)"/>
      <use xlink:href="#DejaVuSans-6e" transform="translate(339.035156 0)"/>
      <use xlink:href="#DejaVuSans-63" transform="translate(402.414062 0)"/>
      <use xlink:href="#DejaVuSans-79" transform="translate(457.394531 0)"/>
      <use xlink:href="#DejaVuSans-20" transform="translate(516.574219 0)"/>
      <use xlink:href="#DejaVuSans-28" transform="translate(548.361328 0)"/>
      <use xlink:href="#DejaVuSans-48" transform="translate(587.375 0)"/>
      <use xlink:href="#DejaVuSans-7a" transform="translate(662.570312 0)"/>
      <use xlink:href="#DejaVuSans-29" transform="translate(715.060547 0)"/>
     </g>
    </g>
   </g>
   <g id="matplotlib.axis_2">
    <g id="ytick_1">
     <g id="line2d_13">
      <path d="M 46.965625 287.003564 
L 604.965625 287.003564 
" clip-path="url(#pc6c786b650)" style="fill: none; stroke: #b0b0b0; stroke-width: 0.8; stroke-linecap: square"/>
     </g>
     <g id="line2d_14">
      <defs>
       <path id="m86fe2b583c" d="M 0 0 
L -3.5 0 
" style="stroke: #000000; stroke-width: 0.8"/>
      </defs>
      <g>
       <use xlink:href="#m86fe2b583c" x="46.965625" y="287.003564" style="stroke: #000000; stroke-width: 0.8"/>
      </g>
     </g>
     <g id="text_8">
      <!-- 0 -->
      <g transform="translate(33.603125 290.802782) scale(0.1 -0.1)">
       <use xlink:href="#DejaVuSans-30"/>
      </g>
     </g>
    </g>
    <g id="ytick_2">
     <g id="line2d_15">
      <path d="M 46.965625 251.558518 
L 604.965625 251.558518 
" clip-path="url(#pc6c786b650)" style="fill: none; stroke: #b0b0b0; stroke-width: 0.8; stroke-linecap: square"/>
     </g>
     <g id="line2d_16">
      <g>
       <use xlink:href="#m86fe2b583c" x="46.965625" y="251.558518" style="stroke: #000000; stroke-width: 0.8"/>
      </g>
     </g>
     <g id="text_9">
      <!-- 25 -->
      <g transform="translate(27.240625 255.357737) scale(0.1 -0.1)">
       <defs>
        <path id="DejaVuSans-35" d="M 691 4666 
L 3169 4666 
L 3169 4134 
L 1269 4134 
L 1269 2991 
Q 1406 3038 1543 3061 
Q 1681 3084 1819 3084 
Q 2600 3084 3056 2656 
Q 3513 2228 3513 1497 
Q 3513 744 3044 326 
Q 2575 -91 1722 -91 
Q 1428 -91 1123 -41 
Q 819 9 494 109 
L 494 744 
Q 775 591 1075 516 
Q 1375 441 1709 441 
Q 2250 441 2565 725 
Q 2881 1009 2881 1497 
Q 2881 1984 2565 2268 
Q 2250 2553 1709 2553 
Q 1456 2553 1204 2497 
Q 953 2441 691 2322 
L 691 4666 
z
" transform="scale(0.015625)"/>
       </defs>
       <use xlink:href="#DejaVuSans-32"/>
       <use xlink:href="#DejaVuSans-35" transform="translate(63.623047 0)"/>
      </g>
     </g>
    </g>
    <g id="ytick_3">
     <g id="line2d_17">
      <path d="M 46.965625 216.113472 
L 604.965625 216.113472 
" clip-path="url(#pc6c786b650)" style="fill: none; stroke: #b0b0b0; stroke-width: 0.8; stroke-linecap: square"/>
     </g>
     <g id="line2d_18">
      <g>
       <use xlink:href="#m86fe2b583c" x="46.965625" y="216.113472" style="stroke: #000000; stroke-width: 0.8"/>
      </g>
     </g>
     <g id="text_10">
      <!-- 50 -->
      <g transform="translate(27.240625 219.912691) scale(0.1 -0.1)">
       <use xlink:href="#DejaVuSans-35"/>
       <use xlink:href="#DejaVuSans-30" transform="translate(63.623047 0)"/>
      </g>
     </g>
    </g>
    <g id="ytick_4">
     <g id="line2d_19">
      <path d="M 46.965625 180.668426 
L 604.965625 180.668426 
" clip-path="url(#pc6c786b650)" style="fill: none; stroke: #b0b0b0; stroke-width: 0.8; stroke-linecap: square"/>
     </g>
     <g id="line2d_20">
      <g>
       <use xlink:href="#m86fe2b583c" x="46.965625" y="180.668426" style="stroke: #000000; stroke-width: 0.8"/>
      </g>
     </g>
     <g id="text_11">
      <!-- 75 -->
      <g transform="translate(27.240625 184.467645) scale(0.1 -0.1)">
       <defs>
        <path id="DejaVuSans-37" d="M 525 4666 
L 3525 4666 
L 3525 4397 
L 1831 0 
L 1172 0 
L 2766 4134 
L 525 4134 
L 525 4666 
z
" transform="scale(0.015625)"/>
       </defs>
       <use xlink:href="#DejaVuSans-37"/>
       <use xlink:href="#DejaVuSans-35" transform="translate(63.623047 0)"/>
      </g>
     </g>
    </g>
    <g id="ytick_5">
     <g id="line2d_21">
      <path d="M 46.965625 145.223381 
L 604.965625 145.223381 
" clip-path="url(#pc6c786b650)" style="fill: none; stroke: #b0b0b0; stroke-width: 0.8; stroke-linecap: square"/>
     </g>
     <g id="line2d_22">
      <g>
       <use xlink:href="#m86fe2b583c" x="46.965625" y="145.223381" style="stroke: #000000; stroke-width: 0.8"/>
      </g>
     </g>
     <g id="text_12">
      <!-- 100 -->
      <g transform="translate(20.878125 149.022599) scale(0.1 -0.1)">
       <use xlink:href="#DejaVuSans-31"/>
       <use xlink:href="#DejaVuSans-30" transform="translate(63.623047 0)"/>
       <use xlink:href="#DejaVuSans-30" transform="translate(127.246094 0)"/>
      </g>
     </g>
    </g>
    <g id="ytick_6">
     <g id="line2d_23">
      <path d="M 46.965625 109.778335 
L 604.965625 109.778335 
" clip-path="url(#pc6c786b650)" style="fill: none; stroke: #b0b0b0; stroke-width: 0.8; stroke-linecap: square"/>
     </g>
     <g id="line2d_24">
      <g>
       <use xlink:href="#m86fe2b583c" x="46.965625" y="109.778335" style="stroke: #000000; stroke-width: 0.8"/>
      </g>
     </g>
     <g id="text_13">
      <!-- 125 -->
      <g transform="translate(20.878125 113.577554) scale(0.1 -0.1)">
       <use xlink:href="#DejaVuSans-31"/>
       <use xlink:href="#DejaVuSans-32" transform="translate(63.623047 0)"/>
       <use xlink:href="#DejaVuSans-35" transform="translate(127.246094 0)"/>
      </g>
     </g>
    </g>
    <g id="ytick_7">
     <g id="line2d_25">
      <path d="M 46.965625 74.333289 
L 604.965625 74.333289 
" clip-path="url(#pc6c786b650)" style="fill: none; stroke: #b0b0b0; stroke-width: 0.8; stroke-linecap: square"/>
     </g>
     <g id="line2d_26">
      <g>
       <use xlink:href="#m86fe2b583c" x="46.965625" y="74.333289" style="stroke: #000000; stroke-width: 0.8"/>
      </g>
     </g>
     <g id="text_14">
      <!-- 150 -->
      <g transform="translate(20.878125 78.132508) scale(0.1 -0.1)">
       <use xlink:href="#DejaVuSans-31"/>
       <use xlink:href="#DejaVuSans-35" transform="translate(63.623047 0)"/>
       <use xlink:href="#DejaVuSans-30" transform="translate(127.246094 0)"/>
      </g>
     </g>
    </g>
    <g id="ytick_8">
     <g id="line2d_27">
      <path d="M 46.965625 38.888243 
L 604.965625 38.888243 
" clip-path="url(#pc6c786b650)" style="fill: none; stroke: #b0b0b0; stroke-width: 0.8; stroke-linecap: square"/>
     </g>
     <g id="line2d_28">
      <g>
       <use xlink:href="#m86fe2b583c" x="46.965625" y="38.888243" style="stroke: #000000; stroke-width: 0.8"/>
      </g>
     </g>
     <g id="text_15">
      <!-- 175 -->
      <g transform="translate(20.878125 42.687462) scale(0.1 -0.1)">
       <use xlink:href="#DejaVuSans-31"/>
       <use xlink:href="#DejaVuSans-37" transform="translate(63.623047 0)"/>
       <use xlink:href="#DejaVuSans-35" transform="translate(127.246094 0)"/>
      </g>
     </g>
    </g>
    <g id="text_16">
     <!-- Power -->
     <g transform="translate(14.798437 176.032188) rotate(-90) scale(0.1 -0.1)">
      <defs>
       <path id="DejaVuSans-50" d="M 1259 4147 
L 1259 2394 
L 2053 2394 
Q 2494 2394 2734 2622 
Q 2975 2850 2975 3272 
Q 2975 3691 2734 3919 
Q 2494 4147 2053 4147 
L 1259 4147 
z
M 628 4666 
L 2053 4666 
Q 2838 4666 3239 4311 
Q 3641 3956 3641 3272 
Q 3641 2581 3239 2228 
Q 2838 1875 2053 1875 
L 1259 1875 
L 1259 0 
L 628 0 
L 628 4666 
z
" transform="scale(0.015625)"/>
       <path id="DejaVuSans-6f" d="M 1959 3097 
Q 1497 3097 1228 2736 
Q 959 2375 959 1747 
Q 959 1119 1226 758 
Q 1494 397 1959 397 
Q 2419 397 2687 759 
Q 2956 1122 2956 1747 
Q 2956 2369 2687 2733 
Q 2419 3097 1959 3097 
z
M 1959 3584 
Q 2709 3584 3137 3096 
Q 3566 2609 3566 1747 
Q 3566 888 3137 398 
Q 2709 -91 1959 -91 
Q 1206 -91 779 398 
Q 353 888 353 1747 
Q 353 2609 779 3096 
Q 1206 3584 1959 3584 
z
" transform="scale(0.015625)"/>
       <path id="DejaVuSans-77" d="M 269 3500 
L 844 3500 
L 1563 769 
L 2278 3500 
L 2956 3500 
L 3675 769 
L 4391 3500 
L 4966 3500 
L 4050 0 
L 3372 0 
L 2619 2869 
L 1863 0 
L 1184 0 
L 269 3500 
z
" transform="scale(0.015625)"/>
      </defs>
      <use xlink:href="#DejaVuSans-50"/>
      <use xlink:href="#DejaVuSans-6f" transform="translate(56.677734 0)"/>
      <use xlink:href="#DejaVuSans-77" transform="translate(117.859375 0)"/>
      <use xlink:href="#DejaVuSans-65" transform="translate(199.646484 0)"/>
      <use xlink:href="#DejaVuSans-72" transform="translate(261.169922 0)"/>
     </g>
    </g>
   </g>
   <g id="line2d_29">
    <path d="M 72.329261 249.967811 
L 78.440981 104.841282 
L 84.552701 174.051699 
L 90.66442 231.869752 
L 96.77614 270.417878 
L 102.887859 281.591823 
L 108.999579 283.158786 
L 115.111299 283.845254 
L 121.223018 284.624967 
L 127.334738 285.670128 
L 133.446457 285.682936 
L 139.558177 284.704948 
L 145.669897 284.879585 
L 151.781616 285.498836 
L 157.893336 285.265049 
L 164.005055 285.49227 
L 170.116775 285.662744 
L 176.228495 285.824254 
L 182.340214 286.097051 
L 188.451934 286.083672 
L 194.563653 285.758493 
L 200.675373 285.681852 
L 206.787093 285.851852 
L 212.898812 285.799272 
L 219.010532 285.519579 
L 225.122252 285.639148 
L 231.233971 286.021483 
L 237.345691 286.21173 
L 243.45741 286.304379 
L 249.56913 286.364657 
L 255.68085 286.236564 
L 261.792569 286.27869 
L 267.904289 286.353537 
L 274.016008 286.348529 
L 280.127728 286.366749 
L 286.239448 286.503232 
L 292.351167 286.63779 
L 298.462887 286.65425 
L 304.574606 286.564336 
L 310.686326 286.653003 
L 316.798046 286.424004 
L 322.909765 286.669727 
L 329.021485 286.740023 
L 335.133204 286.706973 
L 341.244924 286.784771 
L 347.356644 286.674378 
L 353.468363 286.567549 
L 359.580083 286.59194 
L 365.691802 286.808771 
L 371.803522 286.738042 
L 377.915242 286.756175 
L 384.026961 286.838631 
L 390.138681 286.813888 
L 396.2504 286.752668 
L 402.36212 286.780308 
L 408.47384 286.76698 
L 414.585559 286.757259 
L 420.697279 286.816516 
L 426.808998 286.792245 
L 432.920718 286.82347 
L 439.032438 286.848228 
L 445.144157 286.781504 
L 451.255877 286.809234 
L 457.367597 286.840405 
L 463.479316 286.802786 
L 469.591036 286.791529 
L 475.702755 286.836565 
L 481.814475 286.849871 
L 487.926195 286.878842 
L 494.037914 286.784399 
L 500.149634 286.790341 
L 506.261353 286.805203 
L 512.373073 286.815637 
L 518.484793 286.834706 
L 524.596512 286.811644 
L 530.708232 286.818917 
L 536.819951 286.808219 
L 542.931671 286.843176 
L 549.043391 286.831571 
L 555.15511 286.816895 
L 561.26683 286.81524 
L 567.378549 286.805265 
L 573.490269 286.822391 
L 579.601989 286.82277 
" clip-path="url(#pc6c786b650)" style="fill: none; stroke: #1f77b4; stroke-width: 2; stroke-linecap: square"/>
   </g>
   <g id="line2d_30">
    <path d="M 72.329261 269.350603 
L 78.440981 50.392001 
L 84.552701 143.959607 
L 90.66442 235.847843 
L 96.77614 283.084779 
L 102.887859 274.553797 
L 108.999579 271.741004 
L 115.111299 279.453267 
L 121.223018 280.636134 
L 127.334738 279.753977 
L 133.446457 281.136394 
L 139.558177 283.806339 
L 145.669897 285.94245 
L 151.781616 285.782926 
L 157.893336 285.582262 
L 164.005055 285.455143 
L 170.116775 285.326194 
L 176.228495 285.134537 
L 182.340214 284.969726 
L 188.451934 285.333704 
L 194.563653 285.261837 
L 200.675373 284.849564 
L 206.787093 284.970722 
L 212.898812 285.236446 
L 219.010532 285.3771 
L 225.122252 285.790902 
L 231.233971 285.499792 
L 237.345691 285.781004 
L 243.45741 285.636874 
L 249.56913 286.087455 
L 255.68085 285.851677 
L 261.792569 286.305881 
L 267.904289 286.469578 
L 274.016008 286.502821 
L 280.127728 286.412123 
L 286.239448 286.444532 
L 292.351167 286.428308 
L 298.462887 286.464636 
L 304.574606 286.553092 
L 310.686326 286.501192 
L 316.798046 286.346859 
L 322.909765 286.624402 
L 329.021485 286.750661 
L 335.133204 286.658157 
L 341.244924 286.671476 
L 347.356644 286.574961 
L 353.468363 286.789639 
L 359.580083 286.6383 
L 365.691802 286.731368 
L 371.803522 286.684598 
L 377.915242 286.660083 
L 384.026961 286.593489 
L 390.138681 286.624066 
L 396.2504 286.796306 
L 402.36212 286.816296 
L 408.47384 286.829776 
L 414.585559 286.789444 
L 420.697279 286.787579 
L 426.808998 286.830071 
L 432.920718 286.734351 
L 439.032438 286.843008 
L 445.144157 286.79202 
L 451.255877 286.735415 
L 457.367597 286.733012 
L 463.479316 286.635155 
L 469.591036 286.749543 
L 475.702755 286.808399 
L 481.814475 286.819855 
L 487.926195 286.758416 
L 494.037914 286.661379 
L 500.149634 286.766632 
L 506.261353 286.760875 
L 512.373073 286.858893 
L 518.484793 286.831099 
L 524.596512 286.833387 
L 530.708232 286.819262 
L 536.819951 286.820207 
L 542.931671 286.882322 
L 549.043391 286.84274 
L 555.15511 286.832453 
L 561.26683 286.762021 
L 567.378549 286.768475 
L 573.490269 286.88067 
L 579.601989 286.771414 
" clip-path="url(#pc6c786b650)" style="fill: none; stroke: #ff7f0e; stroke-width: 2; stroke-linecap: square"/>
   </g>
   <g id="line2d_31">
    <defs>
     <path id="mb5b8e3ea52" d="M 0 1.5 
C 0.397805 1.5 0.77937 1.341951 1.06066 1.06066 
C 1.341951 0.77937 1.5 0.397805 1.5 0 
C 1.5 -0.397805 1.341951 -0.77937 1.06066 -1.06066 
C 0.77937 -1.341951 0.397805 -1.5 0 -1.5 
C -0.397805 -1.5 -0.77937 -1.341951 -1.06066 -1.06066 
C -1.341951 -0.77937 -1.5 -0.397805 -1.5 0 
C -1.5 0.397805 -1.341951 0.77937 -1.06066 1.06066 
C -0.77937 1.341951 -0.397805 1.5 0 1.5 
z
" style="stroke: #000000"/>
    </defs>
    <g clip-path="url(#pc6c786b650)">
     <use xlink:href="#mb5b8e3ea52" x="78.440981" y="50.392001" style="stroke: #000000"/>
     <use xlink:href="#mb5b8e3ea52" x="96.77614" y="270.417878" style="stroke: #000000"/>
     <use xlink:href="#mb5b8e3ea52" x="102.887859" y="274.553797" style="stroke: #000000"/>
     <use xlink:href="#mb5b8e3ea52" x="108.999579" y="271.741004" style="stroke: #000000"/>
     <use xlink:href="#mb5b8e3ea52" x="115.111299" y="279.453267" style="stroke: #000000"/>
     <use xlink:href="#mb5b8e3ea52" x="121.223018" y="280.636134" style="stroke: #000000"/>
     <use xlink:href="#mb5b8e3ea52" x="127.334738" y="279.753977" style="stroke: #000000"/>
     <use xlink:href="#mb5b8e3ea52" x="133.446457" y="281.136394" style="stroke: #000000"/>
     <use xlink:href="#mb5b8e3ea52" x="353.468363" y="286.567549" style="stroke: #000000"/>
    </g>
   </g>
   <g id="patch_3">
    <path d="M 46.965625 299.518125 
L 46.965625 22.318125 
" style="fill: none; stroke: #000000; stroke-width: 0.8; stroke-linejoin: miter; stroke-linecap: square"/>
   </g>
   <g id="patch_4">
    <path d="M 604.965625 299.518125 
L 604.965625 22.318125 
" style="fill: none; stroke: #000000; stroke-width: 0.8; stroke-linejoin: miter; stroke-linecap: square"/>
   </g>
   <g id="patch_5">
    <path d="M 46.965625 299.518125 
L 604.965625 299.518125 
" style="fill: none; stroke: #000000; stroke-width: 0.8; stroke-linejoin: miter; stroke-linecap: square"/>
   </g>
   <g id="patch_6">
    <path d="M 46.965625 22.318125 
L 604.965625 22.318125 
" style="fill: none; stroke: #000000; stroke-width: 0.8; stroke-linejoin: miter; stroke-linecap: square"/>
   </g>
   <g id="text_17">
    <!-- Mean Power Spectrum: Spontaneous vs. Pulse-triggered UP states -->
    <g transform="translate(127.312187 16.318125) scale(0.12 -0.12)">
     <defs>
      <path id="DejaVuSans-4d" d="M 628 4666 
L 1569 4666 
L 2759 1491 
L 3956 4666 
L 4897 4666 
L 4897 0 
L 4281 0 
L 4281 4097 
L 3078 897 
L 2444 897 
L 1241 4097 
L 1241 0 
L 628 0 
L 628 4666 
z
" transform="scale(0.015625)"/>
      <path id="DejaVuSans-61" d="M 2194 1759 
Q 1497 1759 1228 1600 
Q 959 1441 959 1056 
Q 959 750 1161 570 
Q 1363 391 1709 391 
Q 2188 391 2477 730 
Q 2766 1069 2766 1631 
L 2766 1759 
L 2194 1759 
z
M 3341 1997 
L 3341 0 
L 2766 0 
L 2766 531 
Q 2569 213 2275 61 
Q 1981 -91 1556 -91 
Q 1019 -91 701 211 
Q 384 513 384 1019 
Q 384 1609 779 1909 
Q 1175 2209 1959 2209 
L 2766 2209 
L 2766 2266 
Q 2766 2663 2505 2880 
Q 2244 3097 1772 3097 
Q 1472 3097 1187 3025 
Q 903 2953 641 2809 
L 641 3341 
Q 956 3463 1253 3523 
Q 1550 3584 1831 3584 
Q 2591 3584 2966 3190 
Q 3341 2797 3341 1997 
z
" transform="scale(0.015625)"/>
      <path id="DejaVuSans-53" d="M 3425 4513 
L 3425 3897 
Q 3066 4069 2747 4153 
Q 2428 4238 2131 4238 
Q 1616 4238 1336 4038 
Q 1056 3838 1056 3469 
Q 1056 3159 1242 3001 
Q 1428 2844 1947 2747 
L 2328 2669 
Q 3034 2534 3370 2195 
Q 3706 1856 3706 1288 
Q 3706 609 3251 259 
Q 2797 -91 1919 -91 
Q 1588 -91 1214 -16 
Q 841 59 441 206 
L 441 856 
Q 825 641 1194 531 
Q 1563 422 1919 422 
Q 2459 422 2753 634 
Q 3047 847 3047 1241 
Q 3047 1584 2836 1778 
Q 2625 1972 2144 2069 
L 1759 2144 
Q 1053 2284 737 2584 
Q 422 2884 422 3419 
Q 422 4038 858 4394 
Q 1294 4750 2059 4750 
Q 2388 4750 2728 4690 
Q 3069 4631 3425 4513 
z
" transform="scale(0.015625)"/>
      <path id="DejaVuSans-70" d="M 1159 525 
L 1159 -1331 
L 581 -1331 
L 581 3500 
L 1159 3500 
L 1159 2969 
Q 1341 3281 1617 3432 
Q 1894 3584 2278 3584 
Q 2916 3584 3314 3078 
Q 3713 2572 3713 1747 
Q 3713 922 3314 415 
Q 2916 -91 2278 -91 
Q 1894 -91 1617 61 
Q 1341 213 1159 525 
z
M 3116 1747 
Q 3116 2381 2855 2742 
Q 2594 3103 2138 3103 
Q 1681 3103 1420 2742 
Q 1159 2381 1159 1747 
Q 1159 1113 1420 752 
Q 1681 391 2138 391 
Q 2594 391 2855 752 
Q 3116 1113 3116 1747 
z
" transform="scale(0.015625)"/>
      <path id="DejaVuSans-74" d="M 1172 4494 
L 1172 3500 
L 2356 3500 
L 2356 3053 
L 1172 3053 
L 1172 1153 
Q 1172 725 1289 603 
Q 1406 481 1766 481 
L 2356 481 
L 2356 0 
L 1766 0 
Q 1100 0 847 248 
Q 594 497 594 1153 
L 594 3053 
L 172 3053 
L 172 3500 
L 594 3500 
L 594 4494 
L 1172 4494 
z
" transform="scale(0.015625)"/>
      <path id="DejaVuSans-6d" d="M 3328 2828 
Q 3544 3216 3844 3400 
Q 4144 3584 4550 3584 
Q 5097 3584 5394 3201 
Q 5691 2819 5691 2113 
L 5691 0 
L 5113 0 
L 5113 2094 
Q 5113 2597 4934 2840 
Q 4756 3084 4391 3084 
Q 3944 3084 3684 2787 
Q 3425 2491 3425 1978 
L 3425 0 
L 2847 0 
L 2847 2094 
Q 2847 2600 2669 2842 
Q 2491 3084 2119 3084 
Q 1678 3084 1418 2786 
Q 1159 2488 1159 1978 
L 1159 0 
L 581 0 
L 581 3500 
L 1159 3500 
L 1159 2956 
Q 1356 3278 1631 3431 
Q 1906 3584 2284 3584 
Q 2666 3584 2933 3390 
Q 3200 3197 3328 2828 
z
" transform="scale(0.015625)"/>
      <path id="DejaVuSans-3a" d="M 750 794 
L 1409 794 
L 1409 0 
L 750 0 
L 750 794 
z
M 750 3309 
L 1409 3309 
L 1409 2516 
L 750 2516 
L 750 3309 
z
" transform="scale(0.015625)"/>
      <path id="DejaVuSans-73" d="M 2834 3397 
L 2834 2853 
Q 2591 2978 2328 3040 
Q 2066 3103 1784 3103 
Q 1356 3103 1142 2972 
Q 928 2841 928 2578 
Q 928 2378 1081 2264 
Q 1234 2150 1697 2047 
L 1894 2003 
Q 2506 1872 2764 1633 
Q 3022 1394 3022 966 
Q 3022 478 2636 193 
Q 2250 -91 1575 -91 
Q 1294 -91 989 -36 
Q 684 19 347 128 
L 347 722 
Q 666 556 975 473 
Q 1284 391 1588 391 
Q 1994 391 2212 530 
Q 2431 669 2431 922 
Q 2431 1156 2273 1281 
Q 2116 1406 1581 1522 
L 1381 1569 
Q 847 1681 609 1914 
Q 372 2147 372 2553 
Q 372 3047 722 3315 
Q 1072 3584 1716 3584 
Q 2034 3584 2315 3537 
Q 2597 3491 2834 3397 
z
" transform="scale(0.015625)"/>
      <path id="DejaVuSans-76" d="M 191 3500 
L 800 3500 
L 1894 563 
L 2988 3500 
L 3597 3500 
L 2284 0 
L 1503 0 
L 191 3500 
z
" transform="scale(0.015625)"/>
      <path id="DejaVuSans-2e" d="M 684 794 
L 1344 794 
L 1344 0 
L 684 0 
L 684 794 
z
" transform="scale(0.015625)"/>
      <path id="DejaVuSans-6c" d="M 603 4863 
L 1178 4863 
L 1178 0 
L 603 0 
L 603 4863 
z
" transform="scale(0.015625)"/>
      <path id="DejaVuSans-2d" d="M 313 2009 
L 1997 2009 
L 1997 1497 
L 313 1497 
L 313 2009 
z
" transform="scale(0.015625)"/>
      <path id="DejaVuSans-69" d="M 603 3500 
L 1178 3500 
L 1178 0 
L 603 0 
L 603 3500 
z
M 603 4863 
L 1178 4863 
L 1178 4134 
L 603 4134 
L 603 4863 
z
" transform="scale(0.015625)"/>
      <path id="DejaVuSans-67" d="M 2906 1791 
Q 2906 2416 2648 2759 
Q 2391 3103 1925 3103 
Q 1463 3103 1205 2759 
Q 947 2416 947 1791 
Q 947 1169 1205 825 
Q 1463 481 1925 481 
Q 2391 481 2648 825 
Q 2906 1169 2906 1791 
z
M 3481 434 
Q 3481 -459 3084 -895 
Q 2688 -1331 1869 -1331 
Q 1566 -1331 1297 -1286 
Q 1028 -1241 775 -1147 
L 775 -588 
Q 1028 -725 1275 -790 
Q 1522 -856 1778 -856 
Q 2344 -856 2625 -561 
Q 2906 -266 2906 331 
L 2906 616 
Q 2728 306 2450 153 
Q 2172 0 1784 0 
Q 1141 0 747 490 
Q 353 981 353 1791 
Q 353 2603 747 3093 
Q 1141 3584 1784 3584 
Q 2172 3584 2450 3431 
Q 2728 3278 2906 2969 
L 2906 3500 
L 3481 3500 
L 3481 434 
z
" transform="scale(0.015625)"/>
      <path id="DejaVuSans-64" d="M 2906 2969 
L 2906 4863 
L 3481 4863 
L 3481 0 
L 2906 0 
L 2906 525 
Q 2725 213 2448 61 
Q 2172 -91 1784 -91 
Q 1150 -91 751 415 
Q 353 922 353 1747 
Q 353 2572 751 3078 
Q 1150 3584 1784 3584 
Q 2172 3584 2448 3432 
Q 2725 3281 2906 2969 
z
M 947 1747 
Q 947 1113 1208 752 
Q 1469 391 1925 391 
Q 2381 391 2643 752 
Q 2906 1113 2906 1747 
Q 2906 2381 2643 2742 
Q 2381 3103 1925 3103 
Q 1469 3103 1208 2742 
Q 947 2381 947 1747 
z
" transform="scale(0.015625)"/>
      <path id="DejaVuSans-55" d="M 556 4666 
L 1191 4666 
L 1191 1831 
Q 1191 1081 1462 751 
Q 1734 422 2344 422 
Q 2950 422 3222 751 
Q 3494 1081 3494 1831 
L 3494 4666 
L 4128 4666 
L 4128 1753 
Q 4128 841 3676 375 
Q 3225 -91 2344 -91 
Q 1459 -91 1007 375 
Q 556 841 556 1753 
L 556 4666 
z
" transform="scale(0.015625)"/>
     </defs>
     <use xlink:href="#DejaVuSans-4d"/>
     <use xlink:href="#DejaVuSans-65" transform="translate(86.279297 0)"/>
     <use xlink:href="#DejaVuSans-61" transform="translate(147.802734 0)"/>
     <use xlink:href="#DejaVuSans-6e" transform="translate(209.082031 0)"/>
     <use xlink:href="#DejaVuSans-20" transform="translate(272.460938 0)"/>
     <use xlink:href="#DejaVuSans-50" transform="translate(304.248047 0)"/>
     <use xlink:href="#DejaVuSans-6f" transform="translate(360.925781 0)"/>
     <use xlink:href="#DejaVuSans-77" transform="translate(422.107422 0)"/>
     <use xlink:href="#DejaVuSans-65" transform="translate(503.894531 0)"/>
     <use xlink:href="#DejaVuSans-72" transform="translate(565.417969 0)"/>
     <use xlink:href="#DejaVuSans-20" transform="translate(606.53125 0)"/>
     <use xlink:href="#DejaVuSans-53" transform="translate(638.318359 0)"/>
     <use xlink:href="#DejaVuSans-70" transform="translate(701.794922 0)"/>
     <use xlink:href="#DejaVuSans-65" transform="translate(765.271484 0)"/>
     <use xlink:href="#DejaVuSans-63" transform="translate(826.794922 0)"/>
     <use xlink:href="#DejaVuSans-74" transform="translate(881.775391 0)"/>
     <use xlink:href="#DejaVuSans-72" transform="translate(920.984375 0)"/>
     <use xlink:href="#DejaVuSans-75" transform="translate(962.097656 0)"/>
     <use xlink:href="#DejaVuSans-6d" transform="translate(1025.476562 0)"/>
     <use xlink:href="#DejaVuSans-3a" transform="translate(1122.888672 0)"/>
     <use xlink:href="#DejaVuSans-20" transform="translate(1156.580078 0)"/>
     <use xlink:href="#DejaVuSans-53" transform="translate(1188.367188 0)"/>
     <use xlink:href="#DejaVuSans-70" transform="translate(1251.84375 0)"/>
     <use xlink:href="#DejaVuSans-6f" transform="translate(1315.320312 0)"/>
     <use xlink:href="#DejaVuSans-6e" transform="translate(1376.501953 0)"/>
     <use xlink:href="#DejaVuSans-74" transform="translate(1439.880859 0)"/>
     <use xlink:href="#DejaVuSans-61" transform="translate(1479.089844 0)"/>
     <use xlink:href="#DejaVuSans-6e" transform="translate(1540.369141 0)"/>
     <use xlink:href="#DejaVuSans-65" transform="translate(1603.748047 0)"/>
     <use xlink:href="#DejaVuSans-6f" transform="translate(1665.271484 0)"/>
     <use xlink:href="#DejaVuSans-75" transform="translate(1726.453125 0)"/>
     <use xlink:href="#DejaVuSans-73" transform="translate(1789.832031 0)"/>
     <use xlink:href="#DejaVuSans-20" transform="translate(1841.931641 0)"/>
     <use xlink:href="#DejaVuSans-76" transform="translate(1873.71875 0)"/>
     <use xlink:href="#DejaVuSans-73" transform="translate(1932.898438 0)"/>
     <use xlink:href="#DejaVuSans-2e" transform="translate(1984.998047 0)"/>
     <use xlink:href="#DejaVuSans-20" transform="translate(2016.785156 0)"/>
     <use xlink:href="#DejaVuSans-50" transform="translate(2048.572266 0)"/>
     <use xlink:href="#DejaVuSans-75" transform="translate(2107.125 0)"/>
     <use xlink:href="#DejaVuSans-6c" transform="translate(2170.503906 0)"/>
     <use xlink:href="#DejaVuSans-73" transform="translate(2198.287109 0)"/>
     <use xlink:href="#DejaVuSans-65" transform="translate(2250.386719 0)"/>
     <use xlink:href="#DejaVuSans-2d" transform="translate(2311.910156 0)"/>
     <use xlink:href="#DejaVuSans-74" transform="translate(2347.994141 0)"/>
     <use xlink:href="#DejaVuSans-72" transform="translate(2387.203125 0)"/>
     <use xlink:href="#DejaVuSans-69" transform="translate(2428.316406 0)"/>
     <use xlink:href="#DejaVuSans-67" transform="translate(2456.099609 0)"/>
     <use xlink:href="#DejaVuSans-67" transform="translate(2519.576172 0)"/>
     <use xlink:href="#DejaVuSans-65" transform="translate(2583.052734 0)"/>
     <use xlink:href="#DejaVuSans-72" transform="translate(2644.576172 0)"/>
     <use xlink:href="#DejaVuSans-65" transform="translate(2683.439453 0)"/>
     <use xlink:href="#DejaVuSans-64" transform="translate(2744.962891 0)"/>
     <use xlink:href="#DejaVuSans-20" transform="translate(2808.439453 0)"/>
     <use xlink:href="#DejaVuSans-55" transform="translate(2840.226562 0)"/>
     <use xlink:href="#DejaVuSans-50" transform="translate(2913.419922 0)"/>
     <use xlink:href="#DejaVuSans-20" transform="translate(2973.722656 0)"/>
     <use xlink:href="#DejaVuSans-73" transform="translate(3005.509766 0)"/>
     <use xlink:href="#DejaVuSans-74" transform="translate(3057.609375 0)"/>
     <use xlink:href="#DejaVuSans-61" transform="translate(3096.818359 0)"/>
     <use xlink:href="#DejaVuSans-74" transform="translate(3158.097656 0)"/>
     <use xlink:href="#DejaVuSans-65" transform="translate(3197.306641 0)"/>
     <use xlink:href="#DejaVuSans-73" transform="translate(3258.830078 0)"/>
    </g>
   </g>
   <g id="legend_1">
    <g id="patch_7">
     <path d="M 489.978125 74.3525 
L 597.965625 74.3525 
Q 599.965625 74.3525 599.965625 72.3525 
L 599.965625 29.318125 
Q 599.965625 27.318125 597.965625 27.318125 
L 489.978125 27.318125 
Q 487.978125 27.318125 487.978125 29.318125 
L 487.978125 72.3525 
Q 487.978125 74.3525 489.978125 74.3525 
z
" style="fill: #ffffff; opacity: 0.8; stroke: #cccccc; stroke-linejoin: miter"/>
    </g>
    <g id="line2d_32">
     <path d="M 491.978125 35.416562 
L 501.978125 35.416562 
L 511.978125 35.416562 
" style="fill: none; stroke: #1f77b4; stroke-width: 2; stroke-linecap: square"/>
    </g>
    <g id="text_18">
     <!-- Spontaneous -->
     <g transform="translate(519.978125 38.916562) scale(0.1 -0.1)">
      <use xlink:href="#DejaVuSans-53"/>
      <use xlink:href="#DejaVuSans-70" transform="translate(63.476562 0)"/>
      <use xlink:href="#DejaVuSans-6f" transform="translate(126.953125 0)"/>
      <use xlink:href="#DejaVuSans-6e" transform="translate(188.134766 0)"/>
      <use xlink:href="#DejaVuSans-74" transform="translate(251.513672 0)"/>
      <use xlink:href="#DejaVuSans-61" transform="translate(290.722656 0)"/>
      <use xlink:href="#DejaVuSans-6e" transform="translate(352.001953 0)"/>
      <use xlink:href="#DejaVuSans-65" transform="translate(415.380859 0)"/>
      <use xlink:href="#DejaVuSans-6f" transform="translate(476.904297 0)"/>
      <use xlink:href="#DejaVuSans-75" transform="translate(538.085938 0)"/>
      <use xlink:href="#DejaVuSans-73" transform="translate(601.464844 0)"/>
     </g>
    </g>
    <g id="line2d_33">
     <path d="M 491.978125 50.094688 
L 501.978125 50.094688 
L 511.978125 50.094688 
" style="fill: none; stroke: #ff7f0e; stroke-width: 2; stroke-linecap: square"/>
    </g>
    <g id="text_19">
     <!-- Pulse-triggered -->
     <g transform="translate(519.978125 53.594688) scale(0.1 -0.1)">
      <use xlink:href="#DejaVuSans-50"/>
      <use xlink:href="#DejaVuSans-75" transform="translate(58.552734 0)"/>
      <use xlink:href="#DejaVuSans-6c" transform="translate(121.931641 0)"/>
      <use xlink:href="#DejaVuSans-73" transform="translate(149.714844 0)"/>
      <use xlink:href="#DejaVuSans-65" transform="translate(201.814453 0)"/>
      <use xlink:href="#DejaVuSans-2d" transform="translate(263.337891 0)"/>
      <use xlink:href="#DejaVuSans-74" transform="translate(299.421875 0)"/>
      <use xlink:href="#DejaVuSans-72" transform="translate(338.630859 0)"/>
      <use xlink:href="#DejaVuSans-69" transform="translate(379.744141 0)"/>
      <use xlink:href="#DejaVuSans-67" transform="translate(407.527344 0)"/>
      <use xlink:href="#DejaVuSans-67" transform="translate(471.003906 0)"/>
      <use xlink:href="#DejaVuSans-65" transform="translate(534.480469 0)"/>
      <use xlink:href="#DejaVuSans-72" transform="translate(596.003906 0)"/>
      <use xlink:href="#DejaVuSans-65" transform="translate(634.867188 0)"/>
      <use xlink:href="#DejaVuSans-64" transform="translate(696.390625 0)"/>
     </g>
    </g>
    <g id="line2d_34">
     <g>
      <use xlink:href="#mb5b8e3ea52" x="501.978125" y="64.772812" style="stroke: #000000"/>
     </g>
    </g>
    <g id="text_20">
     <!-- p &lt; 0.05 -->
     <g transform="translate(519.978125 68.272812) scale(0.1 -0.1)">
      <defs>
       <path id="DejaVuSans-3c" d="M 4684 3150 
L 1459 2003 
L 4684 863 
L 4684 294 
L 678 1747 
L 678 2266 
L 4684 3719 
L 4684 3150 
z
" transform="scale(0.015625)"/>
      </defs>
      <use xlink:href="#DejaVuSans-70"/>
      <use xlink:href="#DejaVuSans-20" transform="translate(63.476562 0)"/>
      <use xlink:href="#DejaVuSans-3c" transform="translate(95.263672 0)"/>
      <use xlink:href="#DejaVuSans-20" transform="translate(179.052734 0)"/>
      <use xlink:href="#DejaVuSans-30" transform="translate(210.839844 0)"/>
      <use xlink:href="#DejaVuSans-2e" transform="translate(274.462891 0)"/>
      <use xlink:href="#DejaVuSans-30" transform="translate(306.25 0)"/>
      <use xlink:href="#DejaVuSans-35" transform="translate(369.873047 0)"/>
     </g>
    </g>
   </g>
  </g>
 </g>
 <defs>
  <clipPath id="pc6c786b650">
   <rect x="46.965625" y="22.318125" width="558" height="277.2"/>
  </clipPath>
 </defs>
</svg>
